<?xml version="1.0" encoding="utf-8"?>
<!-- Generator: Adobe Illustrator 23.0.0, SVG Export Plug-In . SVG Version: 6.00 Build 0)  -->
<svg version="1.1" id="Capa_1" xmlns="http://www.w3.org/2000/svg" xmlns:xlink="http://www.w3.org/1999/xlink" x="0px" y="0px"
	 viewBox="0 0 795.06 499.83" style="enable-background:new 0 0 795.06 499.83;" xml:space="preserve">
<style type="text/css">
	.st0{fill:#FFFFFF;}
</style>
<g>
	<path class="st0" d="M795.06,465.19c-0.27,0.5-0.69,0.97-0.8,1.5c-2.86,13.13-11.46,21.21-23.32,26.31
		c-11.56,4.97-23.84,6.42-36.25,6.75c-27.44,0.73-54.28-3.74-80.85-10.02c-65.92-15.57-128.5-40.4-189.77-68.82
		c-74.38-34.51-145.58-74.73-213.95-119.93c-49.53-32.75-97.22-67.99-141.56-107.59c-28.7-25.63-55.98-52.64-78.86-83.75
		c-10.06-13.68-19.08-28-24.88-44.07C2.87,60.2,1.58,54.6,0,49.11c0-4.71,0-9.42,0-14.13c0.74-2.21,1.42-4.43,2.22-6.62
		c3.86-10.53,11.7-17.15,21.7-21.34C38.9,0.74,54.74-0.39,70.73,0.1c33.34,1.02,65.77,7.67,97.57,17.16
		c24.94,7.44,49.5,16.15,74.22,24.32c1.2,0.39,2.32,1.01,4.14,1.82c-3.02,2.17-5.67,3.75-7.93,5.76
		c-11.97,10.64-23.92,21.32-35.68,32.19c-2.26,2.08-4.14,2.97-7.3,2.6c-13.33-1.55-26.69-2.5-39.97,0.58
		c-1.72,0.4-3.43,0.86-5.1,1.42c-15.56,5.29-21.9,16.12-18.6,32.22c2.69,13.12,9.49,24.34,17.14,35.04
		c16.53,23.14,36.69,42.91,57.95,61.6c39.26,34.5,81.96,64.26,126.53,91.41c54.29,33.07,110.68,61.95,170.29,84.24
		c31.34,11.72,63.22,21.67,96.62,25.67c12.6,1.51,25.23,2.24,37.79-0.56c1.15-0.26,2.3-0.52,3.43-0.83
		c17.83-4.85,25.07-16.75,20.77-34.7c-3.32-13.88-10.88-25.68-19.4-36.84c-2.68-3.5-3.03-6.41-2.05-10.72
		c3.73-16.47,6.78-33.09,10.07-49.67c0.31-1.55,0.45-3.14,0.72-5.07c1.02,0.53,1.73,0.76,2.26,1.2
		c40.92,33.83,80.17,69.32,111.89,112.3c13.19,17.87,24,36.98,28.98,58.92C795.06,455.18,795.06,460.18,795.06,465.19z"/>
	<path class="st0" d="M399.18,8.8c72.73,1.39,134.37,28.15,182.15,83.22c50.03,57.67,68.17,125.23,55.97,200.59
		c-6.33,39.1-22.41,74.16-46.3,105.72c-2.44,3.22-4.73,4.26-8.84,3.37c-33.37-7.16-65.49-18.17-96.92-31.25
		c-76.86-31.98-148.69-72.94-216.03-121.77c-32.1-23.28-62.36-48.73-89.55-77.74c-5.05-5.39-5.91-9.63-2.81-16.42
		C204.92,92.9,250.08,49.3,313.2,24.63C340.98,13.78,369.91,8.8,399.18,8.8z"/>
	<path class="st0" d="M520.76,459.33c-55.23,35.17-146.71,49.52-229.42,8.21c-91.94-45.92-135.98-138.85-133.8-217.94
		C269.89,335.09,390.81,404.88,520.76,459.33z"/>
</g>
</svg>
